<svg id="my-svg" width="100%" xmlns="http://www.w3.org/2000/svg" xmlns:xlink="http://www.w3.org/1999/xlink" class="flowchart" style="max-width: 957.5px; background-color: white;" viewBox="0 0 957.5 814" role="graphics-document document" aria-roledescription="flowchart-v2"><style>#my-svg{font-family:"trebuchet ms",verdana,arial,sans-serif;font-size:16px;fill:#000000;}@keyframes edge-animation-frame{from{stroke-dashoffset:0;}}@keyframes dash{to{stroke-dashoffset:0;}}#my-svg .edge-animation-slow{stroke-dasharray:9,5!important;stroke-dashoffset:900;animation:dash 50s linear infinite;stroke-linecap:round;}#my-svg .edge-animation-fast{stroke-dasharray:9,5!important;stroke-dashoffset:900;animation:dash 20s linear infinite;stroke-linecap:round;}#my-svg .error-icon{fill:#552222;}#my-svg .error-text{fill:#552222;stroke:#552222;}#my-svg .edge-thickness-normal{stroke-width:1px;}#my-svg .edge-thickness-thick{stroke-width:3.5px;}#my-svg .edge-pattern-solid{stroke-dasharray:0;}#my-svg .edge-thickness-invisible{stroke-width:0;fill:none;}#my-svg .edge-pattern-dashed{stroke-dasharray:3;}#my-svg .edge-pattern-dotted{stroke-dasharray:2;}#my-svg .marker{fill:#333333;stroke:#333333;}#my-svg .marker.cross{stroke:#333333;}#my-svg svg{font-family:"trebuchet ms",verdana,arial,sans-serif;font-size:16px;}#my-svg p{margin:0;}#my-svg .label{font-family:"trebuchet ms",verdana,arial,sans-serif;color:#000000;}#my-svg .cluster-label text{fill:#333;}#my-svg .cluster-label span{color:#333;}#my-svg .cluster-label span p{background-color:transparent;}#my-svg .label text,#my-svg span{fill:#000000;color:#000000;}#my-svg .node rect,#my-svg .node circle,#my-svg .node ellipse,#my-svg .node polygon,#my-svg .node path{fill:#eee;stroke:#999;stroke-width:1px;}#my-svg .rough-node .label text,#my-svg .node .label text,#my-svg .image-shape .label,#my-svg .icon-shape .label{text-anchor:middle;}#my-svg .node .katex path{fill:#000;stroke:#000;stroke-width:1px;}#my-svg .rough-node .label,#my-svg .node .label,#my-svg .image-shape .label,#my-svg .icon-shape .label{text-align:center;}#my-svg .node.clickable{cursor:pointer;}#my-svg .root .anchor path{fill:#333333!important;stroke-width:0;stroke:#333333;}#my-svg .arrowheadPath{fill:#333333;}#my-svg .edgePath .path{stroke:#333333;stroke-width:2.0px;}#my-svg .flowchart-link{stroke:#333333;fill:none;}#my-svg .edgeLabel{background-color:white;text-align:center;}#my-svg .edgeLabel p{background-color:white;}#my-svg .edgeLabel rect{opacity:0.5;background-color:white;fill:white;}#my-svg .labelBkg{background-color:rgba(255, 255, 255, 0.5);}#my-svg .cluster rect{fill:hsl(0, 0%, 98.9215686275%);stroke:#707070;stroke-width:1px;}#my-svg .cluster text{fill:#333;}#my-svg .cluster span{color:#333;}#my-svg div.mermaidTooltip{position:absolute;text-align:center;max-width:200px;padding:2px;font-family:"trebuchet ms",verdana,arial,sans-serif;font-size:12px;background:hsl(80, 100%, 96.2745098039%);border:1px solid #aaaa33;border-radius:2px;pointer-events:none;z-index:100;}#my-svg .flowchartTitleText{text-anchor:middle;font-size:18px;fill:#333;}#my-svg rect.text{fill:none;stroke-width:0;}#my-svg .icon-shape,#my-svg .image-shape{background-color:white;text-align:center;}#my-svg .icon-shape p,#my-svg .image-shape p{background-color:white;padding:2px;}#my-svg .icon-shape .label rect,#my-svg .image-shape .label rect{opacity:0.5;background-color:white;fill:white;}#my-svg .label-icon{display:inline-block;height:1em;overflow:visible;vertical-align:-0.125em;}#my-svg .node .label-icon path{fill:currentColor;stroke:revert;stroke-width:revert;}#my-svg :root{--mermaid-font-family:"trebuchet ms",verdana,arial,sans-serif;}</style><g><marker id="my-svg_flowchart-v2-pointEnd" class="marker flowchart-v2" viewBox="0 0 10 10" refX="5" refY="5" markerUnits="userSpaceOnUse" markerWidth="8" markerHeight="8" orient="auto"><path d="M 0 0 L 10 5 L 0 10 z" class="arrowMarkerPath" style="stroke-width: 1; stroke-dasharray: 1, 0;"/></marker><marker id="my-svg_flowchart-v2-pointStart" class="marker flowchart-v2" viewBox="0 0 10 10" refX="4.5" refY="5" markerUnits="userSpaceOnUse" markerWidth="8" markerHeight="8" orient="auto"><path d="M 0 5 L 10 10 L 10 0 z" class="arrowMarkerPath" style="stroke-width: 1; stroke-dasharray: 1, 0;"/></marker><marker id="my-svg_flowchart-v2-circleEnd" class="marker flowchart-v2" viewBox="0 0 10 10" refX="11" refY="5" markerUnits="userSpaceOnUse" markerWidth="11" markerHeight="11" orient="auto"><circle cx="5" cy="5" r="5" class="arrowMarkerPath" style="stroke-width: 1; stroke-dasharray: 1, 0;"/></marker><marker id="my-svg_flowchart-v2-circleStart" class="marker flowchart-v2" viewBox="0 0 10 10" refX="-1" refY="5" markerUnits="userSpaceOnUse" markerWidth="11" markerHeight="11" orient="auto"><circle cx="5" cy="5" r="5" class="arrowMarkerPath" style="stroke-width: 1; stroke-dasharray: 1, 0;"/></marker><marker id="my-svg_flowchart-v2-crossEnd" class="marker cross flowchart-v2" viewBox="0 0 11 11" refX="12" refY="5.2" markerUnits="userSpaceOnUse" markerWidth="11" markerHeight="11" orient="auto"><path d="M 1,1 l 9,9 M 10,1 l -9,9" class="arrowMarkerPath" style="stroke-width: 2; stroke-dasharray: 1, 0;"/></marker><marker id="my-svg_flowchart-v2-crossStart" class="marker cross flowchart-v2" viewBox="0 0 11 11" refX="-1" refY="5.2" markerUnits="userSpaceOnUse" markerWidth="11" markerHeight="11" orient="auto"><path d="M 1,1 l 9,9 M 10,1 l -9,9" class="arrowMarkerPath" style="stroke-width: 2; stroke-dasharray: 1, 0;"/></marker><g class="root"><g class="clusters"><g class="cluster" id="subGraph3" data-look="classic"><rect style="" x="102.25" y="702" width="817.25" height="104"/><g class="cluster-label" transform="translate(442.375, 702)"><foreignObject width="137" height="24"><div xmlns="http://www.w3.org/1999/xhtml" style="display: table-cell; white-space: nowrap; line-height: 1.5;"><span class="nodeLabel"><p>Developing Team</p></span></div></foreignObject></g></g><g class="cluster" id="2LoD" data-look="classic"><rect style="" x="324.5" y="420" width="492" height="232"/><g class="cluster-label" transform="translate(550, 420)"><foreignObject width="41" height="24"><div xmlns="http://www.w3.org/1999/xhtml" style="display: table-cell; white-space: nowrap; line-height: 1.5;"><span class="nodeLabel"><p>2LoD</p></span></div></foreignObject></g></g><g class="cluster" id="1LoD" data-look="classic"><rect style="" x="8" y="266" width="941.5" height="104"/><g class="cluster-label" transform="translate(458.25, 266)"><foreignObject width="41" height="24"><div xmlns="http://www.w3.org/1999/xhtml" style="display: table-cell; white-space: nowrap; line-height: 1.5;"><span class="nodeLabel"><p>1LoD</p></span></div></foreignObject></g></g><g class="cluster" id="subGraph0" data-look="classic"><rect style="" x="185" y="8" width="598.25" height="208"/><g class="cluster-label" transform="translate(439.125, 8)"><foreignObject width="90" height="24"><div xmlns="http://www.w3.org/1999/xhtml" style="display: table-cell; white-space: nowrap; line-height: 1.5;"><span class="nodeLabel"><p>Client &amp; PO</p></span></div></foreignObject></g></g></g><g class="edgePaths"><path d="M437.673,87L436.311,91.167C434.949,95.333,432.224,103.667,430.862,112C429.5,120.333,429.5,128.667,429.5,132.833L429.5,137" id="L_Client1_PO_0" class="edge-thickness-normal edge-pattern-solid edge-thickness-normal edge-pattern-solid flowchart-link" style=";" data-edge="true" data-et="edge" data-id="L_Client1_PO_0" data-points="W3sieCI6NDM3LjY3MzA3NjkyMzA3NjksInkiOjg3fSx7IngiOjQyOS41LCJ5IjoxMTJ9LHsieCI6NDI5LjUsInkiOjEzN31d"/><path d="M330,189.301L312.5,193.751C295,198.2,260,207.1,242.5,215.717C225,224.333,225,232.667,225,241C225,249.333,225,257.667,225.381,266C225.761,274.333,226.522,282.667,226.903,286.833L227.284,291" id="L_PO_API_0" class="edge-thickness-normal edge-pattern-solid edge-thickness-normal edge-pattern-solid flowchart-link" style=";" data-edge="true" data-et="edge" data-id="L_PO_API_0" data-points="W3sieCI6MzMwLCJ5IjoxODkuMzAwNzMzNDk2MzMyNTN9LHsieCI6MjI1LCJ5IjoyMTZ9LHsieCI6MjI1LCJ5IjoyNDF9LHsieCI6MjI1LCJ5IjoyNjZ9LHsieCI6MjI3LjI4MzY1Mzg0NjE1Mzg0LCJ5IjoyOTF9XQ=="/><path d="M429.5,191L429.5,195.167C429.5,199.333,429.5,207.667,429.5,216C429.5,224.333,429.5,232.667,429.5,241C429.5,249.333,429.5,257.667,433.887,266C438.274,274.333,447.048,282.667,451.435,286.833L455.822,291" id="L_PO_Core_0" class="edge-thickness-normal edge-pattern-solid edge-thickness-normal edge-pattern-solid flowchart-link" style=";" data-edge="true" data-et="edge" data-id="L_PO_Core_0" data-points="W3sieCI6NDI5LjUsInkiOjE5MX0seyJ4Ijo0MjkuNSwieSI6MjE2fSx7IngiOjQyOS41LCJ5IjoyNDF9LHsieCI6NDI5LjUsInkiOjI2Nn0seyJ4Ijo0NTUuODIyMTE1Mzg0NjE1MzYsInkiOjI5MX1d"/><path d="M529,189.025L546.875,193.521C564.75,198.017,600.5,207.008,618.375,215.671C636.25,224.333,636.25,232.667,636.25,241C636.25,249.333,636.25,257.667,644.824,266C653.397,274.333,670.545,282.667,679.119,286.833L687.692,291" id="L_PO_Web_0" class="edge-thickness-normal edge-pattern-solid edge-thickness-normal edge-pattern-solid flowchart-link" style=";" data-edge="true" data-et="edge" data-id="L_PO_Web_0" data-points="W3sieCI6NTI5LCJ5IjoxODkuMDI1MzkyOTg2Njk4OX0seyJ4Ijo2MzYuMjUsInkiOjIxNn0seyJ4Ijo2MzYuMjUsInkiOjI0MX0seyJ4Ijo2MzYuMjUsInkiOjI2Nn0seyJ4Ijo2ODcuNjkyMzA3NjkyMzA3NywieSI6MjkxfV0="/><path d="M263.63,291L268.858,286.833C274.087,282.667,284.543,274.333,289.772,266C295,257.667,295,249.333,295,241C295,232.667,295,224.333,295,211.5C295,198.667,295,181.333,295,164C295,146.667,295,129.333,308.75,115.947C322.5,102.561,350,93.122,363.75,88.403L377.5,83.683" id="L_API_Client1_0" class="edge-thickness-normal edge-pattern-solid edge-thickness-normal edge-pattern-solid flowchart-link" style=";" data-edge="true" data-et="edge" data-id="L_API_Client1_0" data-points="W3sieCI6MjYzLjYyOTgwNzY5MjMwNzcsInkiOjI5MX0seyJ4IjoyOTUsInkiOjI2Nn0seyJ4IjoyOTUsInkiOjI0MX0seyJ4IjoyOTUsInkiOjIxNn0seyJ4IjoyOTUsInkiOjE2NH0seyJ4IjoyOTUsInkiOjExMn0seyJ4IjozNzcuNSwieSI6ODMuNjgzMTY4MzE2ODMxNjh9XQ=="/><path d="M753.635,291L755.237,286.833C756.84,282.667,760.045,274.333,761.647,266C763.25,257.667,763.25,249.333,763.25,241C763.25,232.667,763.25,224.333,763.25,211.5C763.25,198.667,763.25,181.333,763.25,164C763.25,146.667,763.25,129.333,721.958,113.888C680.667,98.443,598.083,84.885,556.792,78.106L515.5,71.328" id="L_Web_Client1_0" class="edge-thickness-normal edge-pattern-solid edge-thickness-normal edge-pattern-solid flowchart-link" style=";" data-edge="true" data-et="edge" data-id="L_Web_Client1_0" data-points="W3sieCI6NzUzLjYzNDYxNTM4NDYxNTQsInkiOjI5MX0seyJ4Ijo3NjMuMjUsInkiOjI2Nn0seyJ4Ijo3NjMuMjUsInkiOjI0MX0seyJ4Ijo3NjMuMjUsInkiOjIxNn0seyJ4Ijo3NjMuMjUsInkiOjE2NH0seyJ4Ijo3NjMuMjUsInkiOjExMn0seyJ4Ijo1MTUuNSwieSI6NzEuMzI3NTQ1MzgyNzk0fV0="/><path d="M552.788,291L563.365,286.833C573.942,282.667,595.096,274.333,605.673,266C616.25,257.667,616.25,249.333,616.25,241C616.25,232.667,616.25,224.333,616.25,211.5C616.25,198.667,616.25,181.333,616.25,164C616.25,146.667,616.25,129.333,599.458,115.523C582.667,101.712,549.083,91.425,532.292,86.281L515.5,81.137" id="L_Core_Client1_0" class="edge-thickness-normal edge-pattern-solid edge-thickness-normal edge-pattern-solid flowchart-link" style=";" data-edge="true" data-et="edge" data-id="L_Core_Client1_0" data-points="W3sieCI6NTUyLjc4ODQ2MTUzODQ2MTUsInkiOjI5MX0seyJ4Ijo2MTYuMjUsInkiOjI2Nn0seyJ4Ijo2MTYuMjUsInkiOjI0MX0seyJ4Ijo2MTYuMjUsInkiOjIxNn0seyJ4Ijo2MTYuMjUsInkiOjE2NH0seyJ4Ijo2MTYuMjUsInkiOjExMn0seyJ4Ijo1MTUuNSwieSI6ODEuMTM2OTY2MTI2NjU2ODR9XQ=="/><path d="M464.649,345L461.624,349.167C458.599,353.333,452.55,361.667,449.525,370C446.5,378.333,446.5,386.667,446.5,395C446.5,403.333,446.5,411.667,446.5,420C446.5,428.333,446.5,436.667,446.5,440.833L446.5,445" id="L_Core_Ingest_0" class="edge-thickness-normal edge-pattern-solid edge-thickness-normal edge-pattern-solid flowchart-link" style=";" data-edge="true" data-et="edge" data-id="L_Core_Ingest_0" data-points="W3sieCI6NDY0LjY0OTAzODQ2MTUzODQ1LCJ5IjozNDV9LHsieCI6NDQ2LjUsInkiOjM3MH0seyJ4Ijo0NDYuNSwieSI6Mzk1fSx7IngiOjQ0Ni41LCJ5Ijo0MjB9LHsieCI6NDQ2LjUsInkiOjQ0NX1d"/><path d="M539.159,345L547.632,349.167C556.106,353.333,573.053,361.667,581.526,370C590,378.333,590,386.667,590,395C590,403.333,590,411.667,590,424.5C590,437.333,590,454.667,590,472C590,489.333,590,506.667,591.4,519.5C592.799,532.333,595.599,540.667,596.999,544.833L598.398,549" id="L_Core_RM_0" class="edge-thickness-normal edge-pattern-solid edge-thickness-normal edge-pattern-solid flowchart-link" style=";" data-edge="true" data-et="edge" data-id="L_Core_RM_0" data-points="W3sieCI6NTM5LjE1ODY1Mzg0NjE1MzgsInkiOjM0NX0seyJ4Ijo1OTAsInkiOjM3MH0seyJ4Ijo1OTAsInkiOjM5NX0seyJ4Ijo1OTAsInkiOjQyMH0seyJ4Ijo1OTAsInkiOjQ3Mn0seyJ4Ijo1OTAsInkiOjUyNH0seyJ4Ijo1OTguMzk4NDM3NSwieSI6NTQ5fV0="/><path d="M366.25,339.232L337.75,344.36C309.25,349.488,252.25,359.744,223.75,369.039C195.25,378.333,195.25,386.667,195.25,395C195.25,403.333,195.25,411.667,195.25,424.5C195.25,437.333,195.25,454.667,195.25,472C195.25,489.333,195.25,506.667,195.25,526C195.25,545.333,195.25,566.667,195.25,588C195.25,609.333,195.25,630.667,195.25,645.5C195.25,660.333,195.25,668.667,195.25,677C195.25,685.333,195.25,693.667,199.497,702C203.744,710.333,212.237,718.667,216.484,722.833L220.731,727" id="L_Core_Dev_0" class="edge-thickness-normal edge-pattern-solid edge-thickness-normal edge-pattern-solid flowchart-link" style=";" data-edge="true" data-et="edge" data-id="L_Core_Dev_0" data-points="W3sieCI6MzY2LjI1LCJ5IjozMzkuMjMxODMzOTEwMDM0Nn0seyJ4IjoxOTUuMjUsInkiOjM3MH0seyJ4IjoxOTUuMjUsInkiOjM5NX0seyJ4IjoxOTUuMjUsInkiOjQyMH0seyJ4IjoxOTUuMjUsInkiOjQ3Mn0seyJ4IjoxOTUuMjUsInkiOjUyNH0seyJ4IjoxOTUuMjUsInkiOjU4OH0seyJ4IjoxOTUuMjUsInkiOjY1Mn0seyJ4IjoxOTUuMjUsInkiOjY3N30seyJ4IjoxOTUuMjUsInkiOjcwMn0seyJ4IjoyMjAuNzMwNzY5MjMwNzY5MjMsInkiOjcyN31d"/><path d="M390.918,345L376.515,349.167C362.112,353.333,333.306,361.667,318.903,370C304.5,378.333,304.5,386.667,304.5,395C304.5,403.333,304.5,411.667,304.5,424.5C304.5,437.333,304.5,454.667,304.5,472C304.5,489.333,304.5,506.667,304.5,526C304.5,545.333,304.5,566.667,304.5,588C304.5,609.333,304.5,630.667,313.333,645.5C322.167,660.333,339.833,668.667,348.667,677C357.5,685.333,357.5,693.667,368,703.266C378.5,712.866,399.5,723.731,410,729.164L420.5,734.597" id="L_Core_Dev1_0" class="edge-thickness-normal edge-pattern-solid edge-thickness-normal edge-pattern-solid flowchart-link" style=";" data-edge="true" data-et="edge" data-id="L_Core_Dev1_0" data-points="W3sieCI6MzkwLjkxODI2OTIzMDc2OTIsInkiOjM0NX0seyJ4IjozMDQuNSwieSI6MzcwfSx7IngiOjMwNC41LCJ5IjozOTV9LHsieCI6MzA0LjUsInkiOjQyMH0seyJ4IjozMDQuNSwieSI6NDcyfSx7IngiOjMwNC41LCJ5Ijo1MjR9LHsieCI6MzA0LjUsInkiOjU4OH0seyJ4IjozMDQuNSwieSI6NjUyfSx7IngiOjM1Ny41LCJ5Ijo2Nzd9LHsieCI6MzU3LjUsInkiOjcwMn0seyJ4Ijo0MjAuNSwieSI6NzM0LjU5NzAxNDkyNTM3MzJ9XQ=="/><path d="M602.25,335.419L641.292,341.183C680.333,346.946,758.417,358.473,797.458,368.403C836.5,378.333,836.5,386.667,836.5,395C836.5,403.333,836.5,411.667,836.5,424.5C836.5,437.333,836.5,454.667,836.5,472C836.5,489.333,836.5,506.667,836.5,526C836.5,545.333,836.5,566.667,836.5,588C836.5,609.333,836.5,630.667,822.667,645.5C808.833,660.333,781.167,668.667,767.333,677C753.5,685.333,753.5,693.667,755.103,702C756.705,710.333,759.91,718.667,761.513,722.833L763.115,727" id="L_Core_Dev2_0" class="edge-thickness-normal edge-pattern-solid edge-thickness-normal edge-pattern-solid flowchart-link" style=";" data-edge="true" data-et="edge" data-id="L_Core_Dev2_0" data-points="W3sieCI6NjAyLjI1LCJ5IjozMzUuNDE5NDQ2NDE1ODk3OH0seyJ4Ijo4MzYuNSwieSI6MzcwfSx7IngiOjgzNi41LCJ5IjozOTV9LHsieCI6ODM2LjUsInkiOjQyMH0seyJ4Ijo4MzYuNSwieSI6NDcyfSx7IngiOjgzNi41LCJ5Ijo1MjR9LHsieCI6ODM2LjUsInkiOjU4OH0seyJ4Ijo4MzYuNSwieSI6NjUyfSx7IngiOjc1My41LCJ5Ijo2Nzd9LHsieCI6NzUzLjUsInkiOjcwMn0seyJ4Ijo3NjMuMTE1Mzg0NjE1Mzg0NiwieSI6NzI3fV0="/><path d="M533.5,491.048L558.583,496.54C583.667,502.032,633.833,513.016,654.197,522.675C674.56,532.333,665.12,540.667,660.4,544.833L655.68,549" id="L_Ingest_RM_0" class="edge-thickness-normal edge-pattern-solid edge-thickness-normal edge-pattern-solid flowchart-link" style=";" data-edge="true" data-et="edge" data-id="L_Ingest_RM_0" data-points="W3sieCI6NTMzLjUsInkiOjQ5MS4wNDg0MjEwNTI2MzE1N30seyJ4Ijo2ODQsInkiOjUyNH0seyJ4Ijo2NTUuNjc5Njg3NSwieSI6NTQ5fV0="/><path d="M414.827,499L409.939,503.167C405.051,507.333,395.276,515.667,390.388,530.5C385.5,545.333,385.5,566.667,385.5,588C385.5,609.333,385.5,630.667,373.667,645.5C361.833,660.333,338.167,668.667,326.333,677C314.5,685.333,314.5,693.667,309.192,702C303.883,710.333,293.266,718.667,287.958,722.833L282.649,727" id="L_Ingest_Dev_0" class="edge-thickness-normal edge-pattern-solid edge-thickness-normal edge-pattern-solid flowchart-link" style=";" data-edge="true" data-et="edge" data-id="L_Ingest_Dev_0" data-points="W3sieCI6NDE0LjgyNjkyMzA3NjkyMzEsInkiOjQ5OX0seyJ4IjozODUuNSwieSI6NTI0fSx7IngiOjM4NS41LCJ5Ijo1ODh9LHsieCI6Mzg1LjUsInkiOjY1Mn0seyJ4IjozMTQuNSwieSI6Njc3fSx7IngiOjMxNC41LCJ5Ijo3MDJ9LHsieCI6MjgyLjY0OTAzODQ2MTUzODQ1LCJ5Ijo3Mjd9XQ=="/><path d="M446.5,499L446.5,503.167C446.5,507.333,446.5,515.667,446.5,530.5C446.5,545.333,446.5,566.667,446.5,588C446.5,609.333,446.5,630.667,446.5,645.5C446.5,660.333,446.5,668.667,446.5,677C446.5,685.333,446.5,693.667,447.421,702C448.343,710.333,450.186,718.667,451.107,722.833L452.029,727" id="L_Ingest_Dev1_0" class="edge-thickness-normal edge-pattern-solid edge-thickness-normal edge-pattern-solid flowchart-link" style=";" data-edge="true" data-et="edge" data-id="L_Ingest_Dev1_0" data-points="W3sieCI6NDQ2LjUsInkiOjQ5OX0seyJ4Ijo0NDYuNSwieSI6NTI0fSx7IngiOjQ0Ni41LCJ5Ijo1ODh9LHsieCI6NDQ2LjUsInkiOjY1Mn0seyJ4Ijo0NDYuNSwieSI6Njc3fSx7IngiOjQ0Ni41LCJ5Ijo3MDJ9LHsieCI6NDUyLjAyODg0NjE1Mzg0NjEzLCJ5Ijo3Mjd9XQ=="/><path d="M533.5,485.709L574,492.091C614.5,498.473,695.5,511.236,736,528.285C776.5,545.333,776.5,566.667,776.5,588C776.5,609.333,776.5,630.667,783.167,645.5C789.833,660.333,803.167,668.667,809.833,677C816.5,685.333,816.5,693.667,813.054,702C809.609,710.333,802.718,718.667,799.272,722.833L795.827,727" id="L_Ingest_Dev2_0" class="edge-thickness-normal edge-pattern-solid edge-thickness-normal edge-pattern-solid flowchart-link" style=";" data-edge="true" data-et="edge" data-id="L_Ingest_Dev2_0" data-points="W3sieCI6NTMzLjUsInkiOjQ4NS43MDkwOTA5MDkwOTA5fSx7IngiOjc3Ni41LCJ5Ijo1MjR9LHsieCI6Nzc2LjUsInkiOjU4OH0seyJ4Ijo3NzYuNSwieSI6NjUyfSx7IngiOjgxNi41LCJ5Ijo2Nzd9LHsieCI6ODE2LjUsInkiOjcwMn0seyJ4Ijo3OTUuODI2OTIzMDc2OTIzMSwieSI6NzI3fV0="/><path d="M487.797,627L474.581,631.167C461.365,635.333,434.932,643.667,409.883,652C384.833,660.333,361.167,668.667,349.333,677C337.5,685.333,337.5,693.667,330.349,702C323.197,710.333,308.894,718.667,301.743,722.833L294.591,727" id="L_RM_Dev_0" class="edge-thickness-normal edge-pattern-solid edge-thickness-normal edge-pattern-solid flowchart-link" style=";" data-edge="true" data-et="edge" data-id="L_RM_Dev_0" data-points="W3sieCI6NDg3Ljc5Njg3NSwieSI6NjI3fSx7IngiOjQwOC41LCJ5Ijo2NTJ9LHsieCI6MzM3LjUsInkiOjY3N30seyJ4IjozMzcuNSwieSI6NzAyfSx7IngiOjI5NC41OTEzNDYxNTM4NDYxMywieSI6NzI3fV0="/><path d="M611.5,627L611.5,631.167C611.5,635.333,611.5,643.667,611.5,652C611.5,660.333,611.5,668.667,611.5,677C611.5,685.333,611.5,693.667,592.167,704.383C572.833,715.099,534.167,728.198,514.833,734.747L495.5,741.296" id="L_RM_Dev1_0" class="edge-thickness-normal edge-pattern-solid edge-thickness-normal edge-pattern-solid flowchart-link" style=";" data-edge="true" data-et="edge" data-id="L_RM_Dev1_0" data-points="W3sieCI6NjExLjUsInkiOjYyN30seyJ4Ijo2MTEuNSwieSI6NjUyfSx7IngiOjYxMS41LCJ5Ijo2Nzd9LHsieCI6NjExLjUsInkiOjcwMn0seyJ4Ijo0OTUuNSwieSI6NzQxLjI5NjQxNjkzODExMDd9XQ=="/><path d="M724.234,627L736.279,631.167C748.323,635.333,772.411,643.667,791.122,652C809.833,660.333,823.167,668.667,829.833,677C836.5,685.333,836.5,693.667,831.452,702C826.404,710.333,816.308,718.667,811.26,722.833L806.212,727" id="L_RM_Dev2_0" class="edge-thickness-normal edge-pattern-solid edge-thickness-normal edge-pattern-solid flowchart-link" style=";" data-edge="true" data-et="edge" data-id="L_RM_Dev2_0" data-points="W3sieCI6NzI0LjIzNDM3NSwieSI6NjI3fSx7IngiOjc5Ni41LCJ5Ijo2NTJ9LHsieCI6ODM2LjUsInkiOjY3N30seyJ4Ijo4MzYuNSwieSI6NzAyfSx7IngiOjgwNi4yMTE1Mzg0NjE1Mzg1LCJ5Ijo3Mjd9XQ=="/></g><g class="edgeLabels"><g class="edgeLabel"><g class="label" data-id="L_Client1_PO_0" transform="translate(0, 0)"><foreignObject width="0" height="0"><div xmlns="http://www.w3.org/1999/xhtml" class="labelBkg" style="display: table-cell; white-space: nowrap; line-height: 1.5; max-width: 200px; text-align: center;"><span class="edgeLabel"></span></div></foreignObject></g></g><g class="edgeLabel"><g class="label" data-id="L_PO_API_0" transform="translate(0, 0)"><foreignObject width="0" height="0"><div xmlns="http://www.w3.org/1999/xhtml" class="labelBkg" style="display: table-cell; white-space: nowrap; line-height: 1.5; max-width: 200px; text-align: center;"><span class="edgeLabel"></span></div></foreignObject></g></g><g class="edgeLabel"><g class="label" data-id="L_PO_Core_0" transform="translate(0, 0)"><foreignObject width="0" height="0"><div xmlns="http://www.w3.org/1999/xhtml" class="labelBkg" style="display: table-cell; white-space: nowrap; line-height: 1.5; max-width: 200px; text-align: center;"><span class="edgeLabel"></span></div></foreignObject></g></g><g class="edgeLabel"><g class="label" data-id="L_PO_Web_0" transform="translate(0, 0)"><foreignObject width="0" height="0"><div xmlns="http://www.w3.org/1999/xhtml" class="labelBkg" style="display: table-cell; white-space: nowrap; line-height: 1.5; max-width: 200px; text-align: center;"><span class="edgeLabel"></span></div></foreignObject></g></g><g class="edgeLabel"><g class="label" data-id="L_API_Client1_0" transform="translate(0, 0)"><foreignObject width="0" height="0"><div xmlns="http://www.w3.org/1999/xhtml" class="labelBkg" style="display: table-cell; white-space: nowrap; line-height: 1.5; max-width: 200px; text-align: center;"><span class="edgeLabel"></span></div></foreignObject></g></g><g class="edgeLabel"><g class="label" data-id="L_Web_Client1_0" transform="translate(0, 0)"><foreignObject width="0" height="0"><div xmlns="http://www.w3.org/1999/xhtml" class="labelBkg" style="display: table-cell; white-space: nowrap; line-height: 1.5; max-width: 200px; text-align: center;"><span class="edgeLabel"></span></div></foreignObject></g></g><g class="edgeLabel"><g class="label" data-id="L_Core_Client1_0" transform="translate(0, 0)"><foreignObject width="0" height="0"><div xmlns="http://www.w3.org/1999/xhtml" class="labelBkg" style="display: table-cell; white-space: nowrap; line-height: 1.5; max-width: 200px; text-align: center;"><span class="edgeLabel"></span></div></foreignObject></g></g><g class="edgeLabel"><g class="label" data-id="L_Core_Ingest_0" transform="translate(0, 0)"><foreignObject width="0" height="0"><div xmlns="http://www.w3.org/1999/xhtml" class="labelBkg" style="display: table-cell; white-space: nowrap; line-height: 1.5; max-width: 200px; text-align: center;"><span class="edgeLabel"></span></div></foreignObject></g></g><g class="edgeLabel"><g class="label" data-id="L_Core_RM_0" transform="translate(0, 0)"><foreignObject width="0" height="0"><div xmlns="http://www.w3.org/1999/xhtml" class="labelBkg" style="display: table-cell; white-space: nowrap; line-height: 1.5; max-width: 200px; text-align: center;"><span class="edgeLabel"></span></div></foreignObject></g></g><g class="edgeLabel"><g class="label" data-id="L_Core_Dev_0" transform="translate(0, 0)"><foreignObject width="0" height="0"><div xmlns="http://www.w3.org/1999/xhtml" class="labelBkg" style="display: table-cell; white-space: nowrap; line-height: 1.5; max-width: 200px; text-align: center;"><span class="edgeLabel"></span></div></foreignObject></g></g><g class="edgeLabel"><g class="label" data-id="L_Core_Dev1_0" transform="translate(0, 0)"><foreignObject width="0" height="0"><div xmlns="http://www.w3.org/1999/xhtml" class="labelBkg" style="display: table-cell; white-space: nowrap; line-height: 1.5; max-width: 200px; text-align: center;"><span class="edgeLabel"></span></div></foreignObject></g></g><g class="edgeLabel"><g class="label" data-id="L_Core_Dev2_0" transform="translate(0, 0)"><foreignObject width="0" height="0"><div xmlns="http://www.w3.org/1999/xhtml" class="labelBkg" style="display: table-cell; white-space: nowrap; line-height: 1.5; max-width: 200px; text-align: center;"><span class="edgeLabel"></span></div></foreignObject></g></g><g class="edgeLabel"><g class="label" data-id="L_Ingest_RM_0" transform="translate(0, 0)"><foreignObject width="0" height="0"><div xmlns="http://www.w3.org/1999/xhtml" class="labelBkg" style="display: table-cell; white-space: nowrap; line-height: 1.5; max-width: 200px; text-align: center;"><span class="edgeLabel"></span></div></foreignObject></g></g><g class="edgeLabel"><g class="label" data-id="L_Ingest_Dev_0" transform="translate(0, 0)"><foreignObject width="0" height="0"><div xmlns="http://www.w3.org/1999/xhtml" class="labelBkg" style="display: table-cell; white-space: nowrap; line-height: 1.5; max-width: 200px; text-align: center;"><span class="edgeLabel"></span></div></foreignObject></g></g><g class="edgeLabel"><g class="label" data-id="L_Ingest_Dev1_0" transform="translate(0, 0)"><foreignObject width="0" height="0"><div xmlns="http://www.w3.org/1999/xhtml" class="labelBkg" style="display: table-cell; white-space: nowrap; line-height: 1.5; max-width: 200px; text-align: center;"><span class="edgeLabel"></span></div></foreignObject></g></g><g class="edgeLabel"><g class="label" data-id="L_Ingest_Dev2_0" transform="translate(0, 0)"><foreignObject width="0" height="0"><div xmlns="http://www.w3.org/1999/xhtml" class="labelBkg" style="display: table-cell; white-space: nowrap; line-height: 1.5; max-width: 200px; text-align: center;"><span class="edgeLabel"></span></div></foreignObject></g></g><g class="edgeLabel"><g class="label" data-id="L_RM_Dev_0" transform="translate(0, 0)"><foreignObject width="0" height="0"><div xmlns="http://www.w3.org/1999/xhtml" class="labelBkg" style="display: table-cell; white-space: nowrap; line-height: 1.5; max-width: 200px; text-align: center;"><span class="edgeLabel"></span></div></foreignObject></g></g><g class="edgeLabel"><g class="label" data-id="L_RM_Dev1_0" transform="translate(0, 0)"><foreignObject width="0" height="0"><div xmlns="http://www.w3.org/1999/xhtml" class="labelBkg" style="display: table-cell; white-space: nowrap; line-height: 1.5; max-width: 200px; text-align: center;"><span class="edgeLabel"></span></div></foreignObject></g></g><g class="edgeLabel"><g class="label" data-id="L_RM_Dev2_0" transform="translate(0, 0)"><foreignObject width="0" height="0"><div xmlns="http://www.w3.org/1999/xhtml" class="labelBkg" style="display: table-cell; white-space: nowrap; line-height: 1.5; max-width: 200px; text-align: center;"><span class="edgeLabel"></span></div></foreignObject></g></g></g><g class="nodes"><g class="node default" id="flowchart-Client1-0" transform="translate(446.5, 60)"><rect class="basic label-container" style="" x="-69" y="-27" width="138" height="54"/><g class="label" style="" transform="translate(-39, -12)"><rect/><foreignObject width="78" height="24"><div xmlns="http://www.w3.org/1999/xhtml" style="display: table-cell; white-space: nowrap; line-height: 1.5; max-width: 200px; text-align: center;"><span class="nodeLabel"><p><i class="fa fa-users"></i> Clients</p></span></div></foreignObject></g></g><g class="node default" id="flowchart-PO-1" transform="translate(429.5, 164)"><rect class="basic label-container" style="" x="-99.5" y="-27" width="199" height="54"/><g class="label" style="" transform="translate(-69.5, -12)"><rect/><foreignObject width="139" height="24"><div xmlns="http://www.w3.org/1999/xhtml" style="display: table-cell; white-space: nowrap; line-height: 1.5; max-width: 200px; text-align: center;"><span class="nodeLabel"><p><i class="fa fa-user"></i> Product Owner</p></span></div></foreignObject></g></g><g class="node default" id="flowchart-API-2" transform="translate(229.75, 318)"><rect class="basic label-container" style="" x="-86.5" y="-27" width="173" height="54"/><g class="label" style="" transform="translate(-56.5, -12)"><rect/><foreignObject width="113" height="24"><div xmlns="http://www.w3.org/1999/xhtml" style="display: table-cell; white-space: nowrap; line-height: 1.5; max-width: 200px; text-align: center;"><span class="nodeLabel"><p><i class="fa fa-user"></i> Head of API</p></span></div></foreignObject></g></g><g class="node default" id="flowchart-Core-3" transform="translate(484.25, 318)"><rect class="basic label-container" style="" x="-118" y="-27" width="236" height="54"/><g class="label" style="" transform="translate(-88, -12)"><rect/><foreignObject width="176" height="24"><div xmlns="http://www.w3.org/1999/xhtml" style="display: table-cell; white-space: nowrap; line-height: 1.5; max-width: 200px; text-align: center;"><span class="nodeLabel"><p><i class="fa fa-star"></i> Head of Core (Me!)</p></span></div></foreignObject></g></g><g class="node default" id="flowchart-Web-4" transform="translate(743.25, 318)"><rect class="basic label-container" style="" x="-91" y="-27" width="182" height="54"/><g class="label" style="" transform="translate(-61, -12)"><rect/><foreignObject width="122" height="24"><div xmlns="http://www.w3.org/1999/xhtml" style="display: table-cell; white-space: nowrap; line-height: 1.5; max-width: 200px; text-align: center;"><span class="nodeLabel"><p><i class="fa fa-user"></i> Head of Web</p></span></div></foreignObject></g></g><g class="node default" id="flowchart-Ingest-5" transform="translate(446.5, 472)"><rect class="basic label-container" style="" x="-87" y="-27" width="174" height="54"/><g class="label" style="" transform="translate(-57, -12)"><rect/><foreignObject width="114" height="24"><div xmlns="http://www.w3.org/1999/xhtml" style="display: table-cell; white-space: nowrap; line-height: 1.5; max-width: 200px; text-align: center;"><span class="nodeLabel"><p><i class="fa fa-user"></i> 2LoD Ingest</p></span></div></foreignObject></g></g><g class="node default" id="flowchart-RM-6" transform="translate(611.5, 588)"><rect class="basic label-container" style="" x="-130" y="-39" width="260" height="78"/><g class="label" style="" transform="translate(-100, -24)"><rect/><foreignObject width="200" height="48"><div xmlns="http://www.w3.org/1999/xhtml" style="display: table; white-space: break-spaces; line-height: 1.5; max-width: 200px; text-align: center; width: 200px;"><span class="nodeLabel"><p><i class="fa fa-user"></i> 2LoD Rules and Models</p></span></div></foreignObject></g></g><g class="node default" id="flowchart-Dev-7" transform="translate(248.25, 754)"><rect class="basic label-container" style="" x="-111" y="-27" width="222" height="54"/><g class="label" style="" transform="translate(-81, -12)"><rect/><foreignObject width="162" height="24"><div xmlns="http://www.w3.org/1999/xhtml" style="display: table-cell; white-space: nowrap; line-height: 1.5; max-width: 200px; text-align: center;"><span class="nodeLabel"><p><i class="fa fa-users"></i> Developing Team</p></span></div></foreignObject></g></g><g class="node default" id="flowchart-Dev1-8" transform="translate(458, 754)"><rect class="basic label-container" style="" x="-37.5" y="-27" width="75" height="54"/><g class="label" style="" transform="translate(-7.5, -12)"><rect/><foreignObject width="15" height="24"><div xmlns="http://www.w3.org/1999/xhtml" style="display: table-cell; white-space: nowrap; line-height: 1.5; max-width: 200px; text-align: center;"><span class="nodeLabel"><p>...</p></span></div></foreignObject></g></g><g class="node default" id="flowchart-Dev2-9" transform="translate(773.5, 754)"><rect class="basic label-container" style="" x="-111" y="-27" width="222" height="54"/><g class="label" style="" transform="translate(-81, -12)"><rect/><foreignObject width="162" height="24"><div xmlns="http://www.w3.org/1999/xhtml" style="display: table-cell; white-space: nowrap; line-height: 1.5; max-width: 200px; text-align: center;"><span class="nodeLabel"><p><i class="fa fa-users"></i> Developing Team</p></span></div></foreignObject></g></g></g></g></g></svg>